<?xml version="1.0" encoding="utf-8"?>
<!-- Generator: Adobe Illustrator 27.0.0, SVG Export Plug-In . SVG Version: 6.00 Build 0)  -->
<svg version="1.1" id="图层_1" xmlns="http://www.w3.org/2000/svg" xmlns:xlink="http://www.w3.org/1999/xlink" x="0px" y="0px"
	 viewBox="0 0 48 48" style="enable-background:new 0 0 48 48;" xml:space="preserve">
<style type="text/css">
	.st0{fill:#72A1F7;}
	.st1{fill:#FFFFFF;}
</style>
<path class="st0" d="M36,48H12C5.4,48,0,42.6,0,36V12C0,5.4,5.4,0,12,0h24c6.6,0,12,5.4,12,12v24C48,42.6,42.6,48,36,48z"/>
<g>
	<path class="st1" d="M28.2,33.9"/>
	<path class="st1" d="M35.7,15.9l-3.6-3.6c-1.1-1.1-2.1-1.1-3.4,0.2l-3.3,3.3c-1.2,1.2-1.3,2.2-0.2,3.4l3.6,3.6
		c1.1,1.1,2.1,1.1,3.4-0.2l3.3-3.3C36.8,18,36.9,17.1,35.7,15.9z"/>
	<path class="st1" d="M35.3,32.7v-4.5c0-1.8-0.7-2.5-2.5-2.5h-4.5c-1.8,0-2.5,0.7-2.5,2.5v4.5c0,1.8,0.7,2.5,2.5,2.5h4.5
		C34.6,35.3,35.3,34.5,35.3,32.7z"/>
	<path class="st1" d="M22.3,20V15c0-1.6-0.7-2.2-2.5-2.2h-4.5c-1.8,0-2.5,0.7-2.5,2.2V20c0,1.6,0.7,2.2,2.5,2.2h4.5
		C21.6,22.2,22.3,21.7,22.3,20z"/>
	<path class="st1" d="M22.3,32.7v-4.5c0-1.8-0.7-2.5-2.5-2.5h-4.5c-1.8,0-2.5,0.7-2.5,2.5v4.5c0,1.8,0.7,2.5,2.5,2.5h4.5
		C21.6,35.3,22.3,34.5,22.3,32.7z"/>
</g>
</svg>
