<?xml version="1.0" encoding="utf-8"?>
<!-- Generator: Adobe Illustrator 27.0.0, SVG Export Plug-In . SVG Version: 6.00 Build 0)  -->
<svg version="1.1" id="图层_1" xmlns="http://www.w3.org/2000/svg" xmlns:xlink="http://www.w3.org/1999/xlink" x="0px" y="0px"
	 viewBox="0 0 48 48" style="enable-background:new 0 0 48 48;" xml:space="preserve">
<style type="text/css">
	.st0{fill:#FFC937;}
	.st1{fill:#FFFFFF;}
</style>
<path class="st0" d="M36,48H12C5.4,48,0,42.6,0,36V12C0,5.4,5.4,0,12,0h24c6.6,0,12,5.4,12,12v24C48,42.6,42.6,48,36,48z"/>
<path class="st1" d="M33.4,12.4h-3.7h-6.9h-6c-1.9,0-3.2,1.4-3.2,3.2v16.8c0,1.7,1.4,3.1,3.2,3.1h16.8c0.5,0,0.9-0.3,0.9-0.9V30
	V13.4C34.4,12.8,34,12.4,33.4,12.4z M32.6,33.8H16.8c-0.8,0-1.4-0.7-1.4-1.4c0-0.7,0.6-1.5,1.4-1.5h15.8V33.8z M24,21.1
	c-1.7,0-3-1.4-3-3.1s1.3-3,3-3s3,1.4,3,3C27.1,19.6,25.7,21.1,24,21.1z M27.6,26.6h-7.3c-0.6,0-1-0.5-1-1v-2c0-0.9,0.7-1.6,1.6-1.6
	h6.1c0.9,0,1.6,0.7,1.6,1.6v2C28.7,26.1,28.2,26.6,27.6,26.6z"/>
</svg>
