<?xml version="1.0" encoding="utf-8"?>
<!-- Generator: Adobe Illustrator 27.0.0, SVG Export Plug-In . SVG Version: 6.00 Build 0)  -->
<svg version="1.1" id="图层_1" xmlns="http://www.w3.org/2000/svg" xmlns:xlink="http://www.w3.org/1999/xlink" x="0px" y="0px"
	 viewBox="0 0 48 48" style="enable-background:new 0 0 48 48;" xml:space="preserve">
<style type="text/css">
	.st0{fill:#3290FF;}
	.st1{fill:#FFFFFF;}
</style>
<path class="st0" d="M36,48H12C5.4,48,0,42.6,0,36V12C0,5.4,5.4,0,12,0h24c6.6,0,12,5.4,12,12v24C48,42.6,42.6,48,36,48z"/>
<path class="st1" d="M35.4,28.9l-8.5-15c-0.6-1-1.7-1.7-2.9-1.7s-2.3,0.6-2.9,1.7l-8.5,15c-0.6,1.1-0.6,2.3,0,3.2
	c0.6,1.1,1.7,1.7,2.9,1.7h17c1.2,0,2.3-0.6,2.9-1.7C36,31,36,29.8,35.4,28.9z M24.8,28.8c0,0.1-0.1,0.2-0.2,0.2
	c-0.1,0.1-0.4,0.2-0.6,0.2s-0.5-0.1-0.6-0.2c-0.1-0.1-0.2-0.4-0.2-0.6c0-0.1,0-0.2,0.1-0.4c0-0.1,0.1-0.2,0.2-0.2
	c0.4-0.4,1-0.4,1.3,0C25,27.9,25,28,25.1,28c0,0.1,0.1,0.2,0.1,0.4C25,28.5,24.8,28.6,24.8,28.8z M25,24.8c0,0.5-0.4,1-1,1
	s-1-0.4-1-1V20c0-0.5,0.4-1,1-1s1,0.4,1,1V24.8z"/>
</svg>
