<?xml version="1.0" encoding="utf-8"?>
<!-- Generator: Adobe Illustrator 27.0.0, SVG Export Plug-In . SVG Version: 6.00 Build 0)  -->
<svg version="1.1" id="图层_1" xmlns="http://www.w3.org/2000/svg" xmlns:xlink="http://www.w3.org/1999/xlink" x="0px" y="0px"
	 viewBox="0 0 48 48" style="enable-background:new 0 0 48 48;" xml:space="preserve">
<style type="text/css">
	.st0{fill:#9D95E5;}
	.st1{fill:#FFFFFF;}
</style>
<path class="st0" d="M36,48H12C5.4,48,0,42.6,0,36V12C0,5.4,5.4,0,12,0h24c6.6,0,12,5.4,12,12v24C48,42.6,42.6,48,36,48z"/>
<g>
	<path class="st1" d="M32.7,13.1L14.5,18c-1.6,0.4-1.9,2.6-0.4,3.5l6.4,3.7c0.5,0.3,1.2,0.2,1.5-0.2l4.4-4.4c0.3-0.3,0.9-0.3,1.4,0
		c0.3,0.3,0.3,0.9,0,1.4l-4.3,4.3c-0.4,0.4-0.5,1-0.2,1.5l3.7,6.4c0.8,1.5,3,1.2,3.5-0.4l4.9-18.2C35.3,13.9,34,12.7,32.7,13.1z"/>
</g>
</svg>
