<?xml version="1.0" encoding="utf-8"?>
<!-- Generator: Adobe Illustrator 27.0.0, SVG Export Plug-In . SVG Version: 6.00 Build 0)  -->
<svg version="1.1" id="图层_1" xmlns="http://www.w3.org/2000/svg" xmlns:xlink="http://www.w3.org/1999/xlink" x="0px" y="0px"
	 viewBox="0 0 48 48" style="enable-background:new 0 0 48 48;" xml:space="preserve">
<style type="text/css">
	.st0{fill:#2F80EE;}
	.st1{fill:#FAFAFA;}
</style>
<path class="st0" d="M36,48H12C5.4,48,0,42.6,0,36V12C0,5.4,5.4,0,12,0h24c6.6,0,12,5.4,12,12v24C48,42.6,42.6,48,36,48z"/>
<g>
	<path class="st1" d="M33.5,32.9H14.5c-0.5,0-0.9,0.4-0.9,0.9s0.4,0.9,0.9,0.9h19.2c0.5,0,0.9-0.4,0.9-0.9
		C34.4,33.3,34,32.9,33.5,32.9z"/>
	<path class="st1" d="M23.2,11.6c0.4-0.4,1.1-0.4,1.5,0l8.9,8c0.8,0.7,0.3,2-0.8,2h-3.6v8.4c0,0.6-0.5,1.1-1.1,1.1h-8.4
		c-0.6,0-1.1-0.5-1.1-1.1v-8.4h-3.6c-1.1,0-1.5-1.3-0.8-2L23.2,11.6z"/>
</g>
</svg>
