<?xml version="1.0" encoding="utf-8"?>
<!-- Generator: Adobe Illustrator 27.0.0, SVG Export Plug-In . SVG Version: 6.00 Build 0)  -->
<svg version="1.1" id="图层_1" xmlns="http://www.w3.org/2000/svg" xmlns:xlink="http://www.w3.org/1999/xlink" x="0px" y="0px"
	 viewBox="0 0 48 48" style="enable-background:new 0 0 48 48;" xml:space="preserve">
<style type="text/css">
	.st0{fill:#F7C04C;}
	.st1{fill:#FAFAFA;}
</style>
<path class="st0" d="M36,48H12C5.4,48,0,42.6,0,36V12C0,5.4,5.4,0,12,0h24c6.6,0,12,5.4,12,12v24C48,42.6,42.6,48,36,48z"/>
<path class="st1" d="M25.2,12.3l2.8,5.8c0.2,0.4,0.5,0.6,0.9,0.7l6.4,0.9c1,0.1,1.5,1.5,0.7,2.2l-4.6,4.5c-0.3,0.3-0.4,0.7-0.3,1.2
	l1,6.4c0.2,1-0.9,1.8-1.9,1.4l-5.7-3c-0.4-0.2-0.8-0.2-1.2,0l-5.8,2.9c-0.9,0.5-2-0.3-1.9-1.4l1-6.4c0.1-0.4-0.1-0.8-0.3-1.2
	L12,21.9c-0.7-0.7-0.3-2,0.7-2.2l6.4-0.9c0.4-0.1,0.7-0.3,0.9-0.7l2.8-5.8C23.4,11.4,24.6,11.4,25.2,12.3z"/>
</svg>
