<?xml version="1.0" encoding="utf-8"?>
<!-- Generator: Adobe Illustrator 27.0.0, SVG Export Plug-In . SVG Version: 6.00 Build 0)  -->
<svg version="1.1" id="图层_1" xmlns="http://www.w3.org/2000/svg" xmlns:xlink="http://www.w3.org/1999/xlink" x="0px" y="0px"
	 viewBox="0 0 48 48" style="enable-background:new 0 0 48 48;" xml:space="preserve">
<style type="text/css">
	.st0{fill:#F67775;}
	.st1{fill:#FFFFFF;}
</style>
<path class="st0" d="M36,48H12C5.4,48,0,42.6,0,36V12C0,5.4,5.4,0,12,0h24c6.6,0,12,5.4,12,12v24C48,42.6,42.6,48,36,48z"/>
<g>
	<g>
		<path class="st1" d="M26.4,24.6c-0.6,0.6-1.4,0.9-2.3,0.9c-0.8,0-1.6-0.3-2.3-0.9L13,15.8c-0.5,0.6-0.8,1.3-0.8,2.1v12.2
			c0,1.8,1.4,3.2,3.2,3.2h16.9c1.8,0,3.2-1.4,3.2-3.2V17.9c0-0.7-0.2-1.4-0.6-1.9L26.4,24.6z"/>
		<path class="st1" d="M23.1,23.4c0.6,0.6,1.5,0.6,2.1,0l8.5-8.5c-0.4-0.1-0.8-0.2-1.2-0.2h-17c-0.3,0-0.7,0.1-1,0.2L23.1,23.4z"/>
	</g>
</g>
</svg>
